<svg xmlns="http://www.w3.org/2000/svg" viewBox="0 0 720 340" font-family="sans-serif">
  <rect width="720" height="340" fill="white"/>
  <text x="20" y="28" font-size="17" font-weight="bold" fill="#24292f">Specimen benchmark — detection over runs</text>
  <line x1="60" y1="270.0" x2="690" y2="270.0" stroke="#d0d7de" stroke-width="1"/>
  <text x="52" y="274.0" font-size="10" fill="#57606a" text-anchor="end">0%</text>
  <line x1="60" y1="217.5" x2="690" y2="217.5" stroke="#d0d7de" stroke-width="1"/>
  <text x="52" y="221.5" font-size="10" fill="#57606a" text-anchor="end">25%</text>
  <line x1="60" y1="165.0" x2="690" y2="165.0" stroke="#d0d7de" stroke-width="1"/>
  <text x="52" y="169.0" font-size="10" fill="#57606a" text-anchor="end">50%</text>
  <line x1="60" y1="112.5" x2="690" y2="112.5" stroke="#d0d7de" stroke-width="1"/>
  <text x="52" y="116.5" font-size="10" fill="#57606a" text-anchor="end">75%</text>
  <line x1="60" y1="60.0" x2="690" y2="60.0" stroke="#d0d7de" stroke-width="1"/>
  <text x="52" y="64.0" font-size="10" fill="#57606a" text-anchor="end">100%</text>
  <circle cx="375.0" cy="256.5" r="3.5" fill="#2f81f7"/>
  <circle cx="375.0" cy="240.4" r="3.5" fill="#1a7f37"/>
  <circle cx="375.0" cy="234.4" r="3.5" fill="#bf8700"/>
  <text x="375.0" y="288" font-size="10" fill="#57606a" text-anchor="middle"><tspan x="375.0" dy="0">8f85274</tspan><tspan x="375.0" dy="12">2026-10-04</tspan></text>
  <rect x="60" y="320" width="12" height="12" fill="#2f81f7"/>
  <text x="78" y="331" font-size="11" fill="#24292f">detected</text>
  <rect x="154" y="320" width="12" height="12" fill="#1a7f37"/>
  <text x="172" y="331" font-size="11" fill="#24292f">target detected</text>
  <rect x="293" y="320" width="12" height="12" fill="#bf8700"/>
  <text x="311" y="331" font-size="11" fill="#24292f">detected or flagged</text>
</svg>
